<mxfile host="app.diagrams.net" agent="Mozilla/5.0 (Windows NT 10.0; Win64; x64) AppleWebKit/537.36 (KHTML, like Gecko) Chrome/129.0.0.0 Safari/537.36" version="24.7.17">
  <diagram name="Страница — 1" id="_hINgoOYRr5RbkejEiji">
    <mxGraphModel dx="2117" dy="593" grid="1" gridSize="10" guides="1" tooltips="1" connect="1" arrows="1" fold="1" page="1" pageScale="1" pageWidth="827" pageHeight="1169" math="0" shadow="0">
      <root>
        <mxCell id="0" />
        <mxCell id="1" parent="0" />
        <mxCell id="rg9glhVl7GjSFFi3Jg5t-1" value="Тренер" style="rounded=0;whiteSpace=wrap;html=1;" vertex="1" parent="1">
          <mxGeometry x="320" y="60" width="120" height="60" as="geometry" />
        </mxCell>
        <mxCell id="rg9glhVl7GjSFFi3Jg5t-2" value="Спортсмен" style="rounded=0;whiteSpace=wrap;html=1;" vertex="1" parent="1">
          <mxGeometry x="50" y="220" width="120" height="60" as="geometry" />
        </mxCell>
        <mxCell id="rg9glhVl7GjSFFi3Jg5t-3" value="Результат" style="rounded=0;whiteSpace=wrap;html=1;" vertex="1" parent="1">
          <mxGeometry x="570" y="330" width="120" height="60" as="geometry" />
        </mxCell>
        <mxCell id="rg9glhVl7GjSFFi3Jg5t-4" value="Соревнование" style="rounded=0;whiteSpace=wrap;html=1;" vertex="1" parent="1">
          <mxGeometry x="160" y="510" width="120" height="60" as="geometry" />
        </mxCell>
        <mxCell id="rg9glhVl7GjSFFi3Jg5t-6" value="" style="endArrow=none;html=1;rounded=0;" edge="1" parent="1" target="rg9glhVl7GjSFFi3Jg5t-7">
          <mxGeometry width="50" height="50" relative="1" as="geometry">
            <mxPoint x="440" y="60" as="sourcePoint" />
            <mxPoint x="480" y="20" as="targetPoint" />
          </mxGeometry>
        </mxCell>
        <mxCell id="rg9glhVl7GjSFFi3Jg5t-7" value="Опыт в годах" style="ellipse;whiteSpace=wrap;html=1;" vertex="1" parent="1">
          <mxGeometry x="420" y="20" width="80" height="30" as="geometry" />
        </mxCell>
        <mxCell id="rg9glhVl7GjSFFi3Jg5t-8" value="" style="endArrow=none;html=1;rounded=0;" edge="1" parent="1" target="rg9glhVl7GjSFFi3Jg5t-9">
          <mxGeometry width="50" height="50" relative="1" as="geometry">
            <mxPoint x="380" y="60" as="sourcePoint" />
            <mxPoint x="380" y="30" as="targetPoint" />
          </mxGeometry>
        </mxCell>
        <mxCell id="rg9glhVl7GjSFFi3Jg5t-9" value="&lt;u&gt;Id тренера&lt;/u&gt;" style="ellipse;whiteSpace=wrap;html=1;" vertex="1" parent="1">
          <mxGeometry x="349" y="10" width="65" height="30" as="geometry" />
        </mxCell>
        <mxCell id="rg9glhVl7GjSFFi3Jg5t-10" value="" style="endArrow=none;html=1;rounded=0;" edge="1" parent="1" target="rg9glhVl7GjSFFi3Jg5t-11">
          <mxGeometry width="50" height="50" relative="1" as="geometry">
            <mxPoint x="340" y="60" as="sourcePoint" />
            <mxPoint x="320" y="30" as="targetPoint" />
          </mxGeometry>
        </mxCell>
        <mxCell id="rg9glhVl7GjSFFi3Jg5t-11" value="ФИО" style="ellipse;whiteSpace=wrap;html=1;" vertex="1" parent="1">
          <mxGeometry x="280" y="15" width="60" height="35" as="geometry" />
        </mxCell>
        <mxCell id="rg9glhVl7GjSFFi3Jg5t-12" value="" style="endArrow=none;html=1;rounded=0;" edge="1" parent="1" target="rg9glhVl7GjSFFi3Jg5t-13">
          <mxGeometry width="50" height="50" relative="1" as="geometry">
            <mxPoint x="320" y="80" as="sourcePoint" />
            <mxPoint x="270" y="70" as="targetPoint" />
          </mxGeometry>
        </mxCell>
        <mxCell id="rg9glhVl7GjSFFi3Jg5t-13" value="Специализация" style="ellipse;whiteSpace=wrap;html=1;" vertex="1" parent="1">
          <mxGeometry x="200" y="50" width="100" height="40" as="geometry" />
        </mxCell>
        <mxCell id="rg9glhVl7GjSFFi3Jg5t-15" value="Пол" style="ellipse;whiteSpace=wrap;html=1;" vertex="1" parent="1">
          <mxGeometry x="-20" y="210" width="60" height="40" as="geometry" />
        </mxCell>
        <mxCell id="rg9glhVl7GjSFFi3Jg5t-16" value="ФИО" style="ellipse;whiteSpace=wrap;html=1;" vertex="1" parent="1">
          <mxGeometry x="100" y="170" width="60" height="40" as="geometry" />
        </mxCell>
        <mxCell id="rg9glhVl7GjSFFi3Jg5t-17" value="Дата рождения" style="ellipse;whiteSpace=wrap;html=1;" vertex="1" parent="1">
          <mxGeometry x="160" y="170" width="80" height="40" as="geometry" />
        </mxCell>
        <mxCell id="rg9glhVl7GjSFFi3Jg5t-18" value="&lt;u&gt;Id спортсмена&lt;/u&gt;" style="ellipse;whiteSpace=wrap;html=1;" vertex="1" parent="1">
          <mxGeometry x="10" y="170" width="90" height="40" as="geometry" />
        </mxCell>
        <mxCell id="rg9glhVl7GjSFFi3Jg5t-19" value="" style="endArrow=none;html=1;rounded=0;entryX=0.3;entryY=0.971;entryDx=0;entryDy=0;entryPerimeter=0;" edge="1" parent="1" target="rg9glhVl7GjSFFi3Jg5t-17">
          <mxGeometry width="50" height="50" relative="1" as="geometry">
            <mxPoint x="170" y="220" as="sourcePoint" />
            <mxPoint x="220" y="170" as="targetPoint" />
          </mxGeometry>
        </mxCell>
        <mxCell id="rg9glhVl7GjSFFi3Jg5t-20" value="" style="endArrow=none;html=1;rounded=0;entryX=0.5;entryY=1;entryDx=0;entryDy=0;" edge="1" parent="1" target="rg9glhVl7GjSFFi3Jg5t-16">
          <mxGeometry width="50" height="50" relative="1" as="geometry">
            <mxPoint x="120" y="220" as="sourcePoint" />
            <mxPoint x="170" y="170" as="targetPoint" />
          </mxGeometry>
        </mxCell>
        <mxCell id="rg9glhVl7GjSFFi3Jg5t-21" value="" style="endArrow=none;html=1;rounded=0;entryX=0.5;entryY=1;entryDx=0;entryDy=0;" edge="1" parent="1" target="rg9glhVl7GjSFFi3Jg5t-18">
          <mxGeometry width="50" height="50" relative="1" as="geometry">
            <mxPoint x="60" y="220" as="sourcePoint" />
            <mxPoint x="110" y="170" as="targetPoint" />
          </mxGeometry>
        </mxCell>
        <mxCell id="rg9glhVl7GjSFFi3Jg5t-22" value="" style="endArrow=none;html=1;rounded=0;entryX=1;entryY=1;entryDx=0;entryDy=0;exitX=0;exitY=0.5;exitDx=0;exitDy=0;" edge="1" parent="1" source="rg9glhVl7GjSFFi3Jg5t-2" target="rg9glhVl7GjSFFi3Jg5t-15">
          <mxGeometry width="50" height="50" relative="1" as="geometry">
            <mxPoint x="50" y="240" as="sourcePoint" />
            <mxPoint x="100" y="190" as="targetPoint" />
          </mxGeometry>
        </mxCell>
        <mxCell id="rg9glhVl7GjSFFi3Jg5t-25" style="edgeStyle=orthogonalEdgeStyle;rounded=0;orthogonalLoop=1;jettySize=auto;html=1;entryX=0.5;entryY=1;entryDx=0;entryDy=0;" edge="1" parent="1" source="rg9glhVl7GjSFFi3Jg5t-23" target="rg9glhVl7GjSFFi3Jg5t-1">
          <mxGeometry relative="1" as="geometry" />
        </mxCell>
        <mxCell id="rg9glhVl7GjSFFi3Jg5t-27" value="1" style="edgeLabel;html=1;align=center;verticalAlign=middle;resizable=0;points=[];" vertex="1" connectable="0" parent="rg9glhVl7GjSFFi3Jg5t-25">
          <mxGeometry x="-0.063" y="-1" relative="1" as="geometry">
            <mxPoint as="offset" />
          </mxGeometry>
        </mxCell>
        <mxCell id="rg9glhVl7GjSFFi3Jg5t-26" style="edgeStyle=orthogonalEdgeStyle;rounded=0;orthogonalLoop=1;jettySize=auto;html=1;entryX=1;entryY=0.5;entryDx=0;entryDy=0;" edge="1" parent="1" source="rg9glhVl7GjSFFi3Jg5t-23" target="rg9glhVl7GjSFFi3Jg5t-2">
          <mxGeometry relative="1" as="geometry" />
        </mxCell>
        <mxCell id="rg9glhVl7GjSFFi3Jg5t-28" value="1" style="edgeLabel;html=1;align=center;verticalAlign=middle;resizable=0;points=[];" vertex="1" connectable="0" parent="rg9glhVl7GjSFFi3Jg5t-26">
          <mxGeometry x="-0.5706" relative="1" as="geometry">
            <mxPoint as="offset" />
          </mxGeometry>
        </mxCell>
        <mxCell id="rg9glhVl7GjSFFi3Jg5t-23" value="Тренирует" style="rhombus;whiteSpace=wrap;html=1;" vertex="1" parent="1">
          <mxGeometry x="340" y="210" width="80" height="80" as="geometry" />
        </mxCell>
        <mxCell id="rg9glhVl7GjSFFi3Jg5t-30" style="edgeStyle=orthogonalEdgeStyle;rounded=0;orthogonalLoop=1;jettySize=auto;html=1;" edge="1" parent="1" source="rg9glhVl7GjSFFi3Jg5t-29" target="rg9glhVl7GjSFFi3Jg5t-4">
          <mxGeometry relative="1" as="geometry">
            <Array as="points">
              <mxPoint x="345" y="540" />
            </Array>
          </mxGeometry>
        </mxCell>
        <mxCell id="rg9glhVl7GjSFFi3Jg5t-51" value="M" style="edgeLabel;html=1;align=center;verticalAlign=middle;resizable=0;points=[];" vertex="1" connectable="0" parent="rg9glhVl7GjSFFi3Jg5t-30">
          <mxGeometry x="-0.6287" y="2" relative="1" as="geometry">
            <mxPoint as="offset" />
          </mxGeometry>
        </mxCell>
        <mxCell id="rg9glhVl7GjSFFi3Jg5t-32" style="edgeStyle=orthogonalEdgeStyle;rounded=0;orthogonalLoop=1;jettySize=auto;html=1;entryX=0.5;entryY=1;entryDx=0;entryDy=0;" edge="1" parent="1" source="rg9glhVl7GjSFFi3Jg5t-29" target="rg9glhVl7GjSFFi3Jg5t-2">
          <mxGeometry relative="1" as="geometry" />
        </mxCell>
        <mxCell id="rg9glhVl7GjSFFi3Jg5t-49" value="M" style="edgeLabel;html=1;align=center;verticalAlign=middle;resizable=0;points=[];" vertex="1" connectable="0" parent="rg9glhVl7GjSFFi3Jg5t-32">
          <mxGeometry x="-0.6874" y="4" relative="1" as="geometry">
            <mxPoint as="offset" />
          </mxGeometry>
        </mxCell>
        <mxCell id="rg9glhVl7GjSFFi3Jg5t-29" value="Подсчёт результатов" style="rhombus;whiteSpace=wrap;html=1;" vertex="1" parent="1">
          <mxGeometry x="290" y="330" width="110" height="80" as="geometry" />
        </mxCell>
        <mxCell id="rg9glhVl7GjSFFi3Jg5t-31" style="edgeStyle=orthogonalEdgeStyle;rounded=0;orthogonalLoop=1;jettySize=auto;html=1;exitX=1;exitY=0.5;exitDx=0;exitDy=0;entryX=0;entryY=0.669;entryDx=0;entryDy=0;entryPerimeter=0;" edge="1" parent="1" source="rg9glhVl7GjSFFi3Jg5t-29" target="rg9glhVl7GjSFFi3Jg5t-3">
          <mxGeometry relative="1" as="geometry" />
        </mxCell>
        <mxCell id="rg9glhVl7GjSFFi3Jg5t-50" value="M" style="edgeLabel;html=1;align=center;verticalAlign=middle;resizable=0;points=[];" vertex="1" connectable="0" parent="rg9glhVl7GjSFFi3Jg5t-31">
          <mxGeometry x="-0.3439" y="-3" relative="1" as="geometry">
            <mxPoint as="offset" />
          </mxGeometry>
        </mxCell>
        <mxCell id="rg9glhVl7GjSFFi3Jg5t-33" value="Место проведения" style="ellipse;whiteSpace=wrap;html=1;" vertex="1" parent="1">
          <mxGeometry x="80" y="450" width="75" height="50" as="geometry" />
        </mxCell>
        <mxCell id="rg9glhVl7GjSFFi3Jg5t-34" value="" style="endArrow=none;html=1;rounded=0;entryX=1;entryY=1;entryDx=0;entryDy=0;" edge="1" parent="1" target="rg9glhVl7GjSFFi3Jg5t-33">
          <mxGeometry width="50" height="50" relative="1" as="geometry">
            <mxPoint x="160" y="510" as="sourcePoint" />
            <mxPoint x="210" y="460" as="targetPoint" />
          </mxGeometry>
        </mxCell>
        <mxCell id="rg9glhVl7GjSFFi3Jg5t-35" value="Дата" style="ellipse;whiteSpace=wrap;html=1;" vertex="1" parent="1">
          <mxGeometry x="155" y="440" width="65" height="40" as="geometry" />
        </mxCell>
        <mxCell id="rg9glhVl7GjSFFi3Jg5t-36" value="" style="endArrow=none;html=1;rounded=0;entryX=0.5;entryY=1;entryDx=0;entryDy=0;" edge="1" parent="1" target="rg9glhVl7GjSFFi3Jg5t-35">
          <mxGeometry width="50" height="50" relative="1" as="geometry">
            <mxPoint x="195" y="510" as="sourcePoint" />
            <mxPoint x="245" y="460" as="targetPoint" />
          </mxGeometry>
        </mxCell>
        <mxCell id="rg9glhVl7GjSFFi3Jg5t-37" value="" style="endArrow=none;html=1;rounded=0;" edge="1" parent="1" target="rg9glhVl7GjSFFi3Jg5t-38">
          <mxGeometry width="50" height="50" relative="1" as="geometry">
            <mxPoint x="240" y="510" as="sourcePoint" />
            <mxPoint x="250" y="470" as="targetPoint" />
          </mxGeometry>
        </mxCell>
        <mxCell id="rg9glhVl7GjSFFi3Jg5t-38" value="Название" style="ellipse;whiteSpace=wrap;html=1;" vertex="1" parent="1">
          <mxGeometry x="230" y="440" width="60" height="40" as="geometry" />
        </mxCell>
        <mxCell id="rg9glhVl7GjSFFi3Jg5t-39" value="&lt;u&gt;Id соревнования&lt;/u&gt;" style="ellipse;whiteSpace=wrap;html=1;" vertex="1" parent="1">
          <mxGeometry y="490" width="100" height="50" as="geometry" />
        </mxCell>
        <mxCell id="rg9glhVl7GjSFFi3Jg5t-40" value="" style="endArrow=none;html=1;rounded=0;entryX=1;entryY=0.5;entryDx=0;entryDy=0;" edge="1" parent="1" target="rg9glhVl7GjSFFi3Jg5t-39">
          <mxGeometry width="50" height="50" relative="1" as="geometry">
            <mxPoint x="100" y="515" as="sourcePoint" />
            <mxPoint x="450" y="270" as="targetPoint" />
            <Array as="points">
              <mxPoint x="160" y="530" />
            </Array>
          </mxGeometry>
        </mxCell>
        <mxCell id="rg9glhVl7GjSFFi3Jg5t-41" value="Id спортсмена" style="ellipse;whiteSpace=wrap;html=1;" vertex="1" parent="1">
          <mxGeometry x="700" y="280" width="90" height="50" as="geometry" />
        </mxCell>
        <mxCell id="rg9glhVl7GjSFFi3Jg5t-42" value="Id результата" style="ellipse;whiteSpace=wrap;html=1;" vertex="1" parent="1">
          <mxGeometry x="610" y="270" width="90" height="40" as="geometry" />
        </mxCell>
        <mxCell id="rg9glhVl7GjSFFi3Jg5t-43" value="" style="endArrow=none;html=1;rounded=0;entryX=0.5;entryY=1;entryDx=0;entryDy=0;" edge="1" parent="1" target="rg9glhVl7GjSFFi3Jg5t-41">
          <mxGeometry width="50" height="50" relative="1" as="geometry">
            <mxPoint x="690" y="340" as="sourcePoint" />
            <mxPoint x="740" y="290" as="targetPoint" />
          </mxGeometry>
        </mxCell>
        <mxCell id="rg9glhVl7GjSFFi3Jg5t-44" value="" style="endArrow=none;html=1;rounded=0;entryX=0.5;entryY=1;entryDx=0;entryDy=0;" edge="1" parent="1" target="rg9glhVl7GjSFFi3Jg5t-42">
          <mxGeometry width="50" height="50" relative="1" as="geometry">
            <mxPoint x="640" y="330" as="sourcePoint" />
            <mxPoint x="690" y="280" as="targetPoint" />
          </mxGeometry>
        </mxCell>
        <mxCell id="rg9glhVl7GjSFFi3Jg5t-45" value="Id соревнования" style="ellipse;whiteSpace=wrap;html=1;" vertex="1" parent="1">
          <mxGeometry x="480" y="270" width="100" height="50" as="geometry" />
        </mxCell>
        <mxCell id="rg9glhVl7GjSFFi3Jg5t-48" value="" style="endArrow=none;html=1;rounded=0;entryX=1;entryY=1;entryDx=0;entryDy=0;" edge="1" parent="1" target="rg9glhVl7GjSFFi3Jg5t-45">
          <mxGeometry width="50" height="50" relative="1" as="geometry">
            <mxPoint x="570" y="330" as="sourcePoint" />
            <mxPoint x="620" y="280" as="targetPoint" />
          </mxGeometry>
        </mxCell>
        <mxCell id="rg9glhVl7GjSFFi3Jg5t-54" value="Осипов Михаил ПМИ 33&lt;div&gt;КР&lt;br&gt;&lt;div&gt;Индивидуальные соревнования по плаванию&lt;/div&gt;&lt;/div&gt;" style="text;html=1;align=center;verticalAlign=middle;whiteSpace=wrap;rounded=0;" vertex="1" parent="1">
          <mxGeometry x="7.5" y="100" width="192.5" height="50" as="geometry" />
        </mxCell>
      </root>
    </mxGraphModel>
  </diagram>
</mxfile>
